<?xml version="1.0" encoding="utf-8"?>
<!-- Generator: Adobe Illustrator 18.1.1, SVG Export Plug-In . SVG Version: 6.00 Build 0)  -->
<svg version="1.1"
	 id="svg3759" xmlns:cc="http://creativecommons.org/ns#" xmlns:dc="http://purl.org/dc/elements/1.1/" xmlns:rdf="http://www.w3.org/1999/02/22-rdf-syntax-ns#" xmlns:svg="http://www.w3.org/2000/svg" xmlns:sodipodi="http://sodipodi.sourceforge.net/DTD/sodipodi-0.dtd" xmlns:inkscape="http://www.inkscape.org/namespaces/inkscape" inkscape:version="0.47 r22583" sodipodi:docname="bracket_800x500.svg"
	 xmlns="http://www.w3.org/2000/svg" xmlns:xlink="http://www.w3.org/1999/xlink" x="0px" y="0px" viewBox="0 157 504 47"
	 enable-background="new 0 157 504 47" xml:space="preserve">
<defs>
	
	
		<inkscape:perspective  inkscape:vp_z="744.09448 : 526.18109 : 1" sodipodi:type="inkscape:persp3d" id="perspective3767" inkscape:vp_y="0 : 1000 : 0" inkscape:vp_x="0 : 526.18109 : 1" inkscape:persp3d-origin="372.04724 : 350.78739 : 1">
		</inkscape:perspective>
	
		<inkscape:perspective  inkscape:vp_z="1 : 0.5 : 1" sodipodi:type="inkscape:persp3d" id="perspective4305" inkscape:vp_y="0 : 1000 : 0" inkscape:vp_x="0 : 0.5 : 1" inkscape:persp3d-origin="0.5 : 0.33333333 : 1">
		</inkscape:perspective>
</defs>
<sodipodi:namedview  inkscape:zoom="0.35" bordercolor="#666666" pagecolor="#ffffff" borderopacity="1.0" showgrid="false" inkscape:cx="375" inkscape:cy="520" id="base" inkscape:pageopacity="0.0" inkscape:pageshadow="2" inkscape:document-units="px" inkscape:current-layer="layer1" inkscape:window-width="1680" inkscape:window-height="1025" inkscape:window-x="1680" inkscape:window-y="0" inkscape:window-maximized="1">
	</sodipodi:namedview>
<g id="layer1" transform="translate(0,-552.36218)" inkscape:label="Layer 1" inkscape:groupmode="layer">
	<path id="path3620" sodipodi:nodetypes="cccscccccsccc" fill="#2D3133" d="M252,737c0-7.1-4.2-8.5-22.7-8.5H33.2
		c-22.1,0-22.1-10.3-22.1-14.9c0,11.3,0,21.6,22.1,21.6h196.1c18.6,0,22.7,8.4,22.7,15.9c0-7.5,4-16,22.7-16l196.1,0.1
		c22.1,0,22.1-10.3,22.1-21.6c0,4.6,0,14.9-22.1,14.9H274.7C256.2,728.5,252,730,252,737L252,737z"/>
</g>
</svg>
